<?xml version="1.0" encoding="utf-8"?>
<!-- Generator: Adobe Illustrator 27.5.0, SVG Export Plug-In . SVG Version: 6.00 Build 0)  -->
<svg version="1.1" id="Ebene_1" xmlns="http://www.w3.org/2000/svg" xmlns:xlink="http://www.w3.org/1999/xlink" x="0px" y="0px"
	 viewBox="0 0 448 512" style="enable-background:new 0 0 448 512;" xml:space="preserve">
<path d="M448,432V80c0-26.5-21.5-48-48-48L48,32C21.5,32,0,53.5,0,80l0,137.2h152.3v-63H224v63h54.6c62.1,0,96.5,37,96.5,93.7
	c0,27.1-4.8,55.5-4.8,55.5h-61v-31.3c0-30.8-19.1-40.4-38.7-40.4H224v68.8l-71.7-11v-57.8H0L0,432c0,26.5,21.5,48,48,48h352
	C426.5,480,448,458.5,448,432z"/>
</svg>
