<?xml version="1.0" encoding="utf-8"?>
<!-- Generator: Adobe Illustrator 27.5.0, SVG Export Plug-In . SVG Version: 6.00 Build 0)  -->
<svg version="1.1" id="Ebene_1" xmlns="http://www.w3.org/2000/svg" xmlns:xlink="http://www.w3.org/1999/xlink" x="0px" y="0px"
	 viewBox="0 0 448 512" style="enable-background:new 0 0 448 512;" xml:space="preserve">
<path d="M283.2,345.5c2.7,2.7,2.7,6.8,0,9.2c-24.5,24.5-93.8,24.6-118.4,0c-2.7-2.4-2.7-6.5,0-9.2c2.4-2.4,6.5-2.4,8.9,0
	c18.7,19.2,81,19.6,100.5,0C276.6,343.2,280.8,343.2,283.2,345.5z M191.9,291.7c0-14.9-11.9-26.8-26.5-26.8
	c-14.9,0-26.8,11.9-26.8,26.8c0,14.6,11.9,26.5,26.8,26.5C180,318.2,191.9,306.3,191.9,291.7z M282.6,264.9
	c-14.6,0-26.5,11.9-26.5,26.8c0,14.6,11.9,26.5,26.5,26.5c14.9,0,26.8-11.9,26.8-26.5C309.4,276.8,297.5,264.9,282.6,264.9z M448,80
	v352c0,26.5-21.5,48-48,48H48c-26.5,0-48-21.5-48-48V80c0-26.5,21.5-48,48-48h352C426.5,32,448,53.5,448,80z M348.3,220.6
	c-10.1,0-19,4.2-25.6,10.7c-24.1-16.7-56.5-27.4-92.5-28.6l18.7-84.2l59.5,13.4c0,14.6,11.9,26.5,26.5,26.5
	c14.9,0,26.8-12.2,26.8-26.8s-11.9-26.8-26.8-26.8c-10.4,0-19.3,6.2-23.8,14.9l-65.7-14.6c-3.3-0.9-6.5,1.5-7.4,4.8l-20.5,92.8
	c-35.7,1.5-67.8,12.2-91.9,28.9c-6.5-6.8-15.8-11-25.9-11c-37.5,0-49.8,50.4-15.5,67.5c-1.2,5.4-1.8,11-1.8,16.7
	c0,56.5,63.7,102.3,141.9,102.3c78.5,0,142.2-45.8,142.2-102.3c0-5.7-0.6-11.6-2.1-17C398,270.6,385.6,220.6,348.3,220.6
	L348.3,220.6z"/>
</svg>
