<?xml version="1.0" encoding="utf-8"?>
<!-- Generator: Adobe Illustrator 27.5.0, SVG Export Plug-In . SVG Version: 6.00 Build 0)  -->
<svg version="1.1" id="Ebene_1" xmlns="http://www.w3.org/2000/svg" xmlns:xlink="http://www.w3.org/1999/xlink" x="0px" y="0px"
	 viewBox="0 0 448 512" style="enable-background:new 0 0 448 512;" xml:space="preserve">
<path d="M313.5,196.8c2.7-2.7,6.8-2.7,9.2,0c24.5,24.5,24.6,93.8,0,118.4c-2.4,2.7-6.5,2.7-9.2,0c-2.4-2.4-2.4-6.5,0-8.9
	c19.2-18.7,19.6-81,0-100.5C311.2,203.4,311.2,199.2,313.5,196.8z M259.7,288.1c-14.9,0-26.8,11.9-26.8,26.5
	c0,14.9,11.9,26.8,26.8,26.8c14.6,0,26.5-11.9,26.5-26.8C286.2,300,274.3,288.1,259.7,288.1z M232.9,197.4
	c0,14.6,11.9,26.5,26.8,26.5c14.6,0,26.5-11.9,26.5-26.5c0-14.9-11.9-26.8-26.5-26.8C244.8,170.6,232.9,182.5,232.9,197.4z M48,32
	h352c26.5,0,48,21.5,48,48v352c0,26.5-21.5,48-48,48H48c-26.5,0-48-21.5-48-48V80C0,53.5,21.5,32,48,32z M188.6,131.7
	c0,10.1,4.2,19,10.7,25.6c-16.7,24.1-27.4,56.5-28.6,92.5l-84.2-18.7l13.4-59.5c14.6,0,26.5-11.9,26.5-26.5
	c0-14.9-12.2-26.8-26.8-26.8s-26.8,11.9-26.8,26.8c0,10.4,6.2,19.3,14.9,23.8l-14.6,65.7c-0.9,3.3,1.5,6.5,4.8,7.4l92.8,20.5
	c1.5,35.7,12.2,67.8,28.9,91.9c-6.8,6.5-11,15.8-11,25.9c0,37.5,50.4,49.8,67.5,15.5c5.4,1.2,11,1.8,16.7,1.8
	c56.5,0,102.3-63.7,102.3-141.9c0-78.5-45.8-142.2-102.3-142.2c-5.7,0-11.6,0.6-17,2.1C238.6,82,188.6,94.4,188.6,131.7L188.6,131.7
	z"/>
</svg>
