<?xml version="1.0" encoding="utf-8"?>
<!-- Generator: Adobe Illustrator 27.5.0, SVG Export Plug-In . SVG Version: 6.00 Build 0)  -->
<svg version="1.1" id="Ebene_1" xmlns="http://www.w3.org/2000/svg" xmlns:xlink="http://www.w3.org/1999/xlink" x="0px" y="0px"
	 viewBox="0 0 448 512" style="enable-background:new 0 0 448 512;" xml:space="preserve">
<path d="M0,96l0,320c0,35.3,28.7,64,64,64l320,0c35.3,0,64-28.7,64-64l0-320c0-35.3-28.7-64-64-64L64,32C28.7,32,0,60.7,0,96z
	 M319.3,99.9l0.1,0.1c2.8,2.5,5.1,5.4,6.8,8.7c3.6,6.5,6.3,13.4,8.2,20.6c0.4,1.4,1,2.7,1.8,3.9c1.9,2.2,4.6,2.1,8.5,4.4
	c3,1.7,5.5,4,7.5,6.8c4.6,6.7,4.9,14.2,5.2,22.2c0.3,7.2,0.6,15.4,3.7,24.7c1.2,3.8,3.7,7.8,6.5,12.4C374.5,215,384,230.4,384,256
	c0,25.6-9.4,40.9-16.3,52.1c-2.9,4.7-5.4,8.7-6.6,12.5c-3.1,9.3-3.4,17.5-3.7,24.7c-0.3,8-0.6,15.5-5.2,22.2c-1.6,2.4-3.7,4.4-6.1,6
	c-4.6,3.2-7.8,2.9-9.9,5.3c-0.8,1.3-1.5,2.6-1.8,4.1c-1.9,7.1-4.6,13.9-8.1,20.3c-1.6,3.1-3.8,5.9-6.3,8.3
	c-6.8,6.6-14.8,8.3-21.8,5.7c-9.3-3.4-12.1-11.6-16.3-19.4c-8-14.8-18.1-26.3-29.9-34.4c-3.3-2.3-6.9-4.3-10.6-6
	c-2.2-0.8-3.3-0.8-4.4-0.2c-0.9,0.6-1.6,1.3-2.2,2.2c-1.7,2.5-3.4,5.1-4.5,6.9c-2.1,3.3-3.8,5.9-5,7.5c-4.4,6.3-9,10.6-14.2,13.4
	c-7.3,3.9-15.9,4.4-23.6,1.4c-10.9-4.1-17.7-14.5-17.7-27c0-2.6,0.3-5.3,0.8-7.8c0.1-0.7,0.3-1.4,0.5-2c-7.4,0.1-15.4-0.1-23.1-0.7
	c-27.3-2.4-41.6-11.9-53-21.9c-7.2-6.4-13.2-13.9-17.9-22.3c-8.6-15.1-13-32.2-13-50.9s4.4-35.8,13-50.9
	c4.7-8.3,10.8-15.9,17.9-22.2c11.4-10,25.7-19.5,53-21.9c7.7-0.6,15.4-0.9,23.1-0.7c-0.2-0.7-0.3-1.4-0.5-2.1
	c-0.6-2.6-0.8-5.2-0.8-7.8c0-12.5,6.8-22.8,17.7-27c7.7-3,16.3-2.5,23.6,1.4c5.2,2.7,9.9,7.1,14.2,13.4c1.2,1.7,2.9,4.3,5,7.5
	c1.2,1.8,2.9,4.5,4.7,7.2c0.5,0.8,1.2,1.4,2,2c1,0.5,2.2,0.5,4.2-0.2c3.8-1.7,7.4-3.7,10.8-6.1c12.1-8.3,22.3-20.2,30.4-35.5
	c0.8-1.5,1.5-3,2.3-4.4c0.3-0.7,0.8-1.6,1.3-2.5c2.7-4.9,6-9.2,12.2-11.5C304.9,92.2,312.7,93.7,319.3,99.9z M300.8,116.6
	c-24.3,50.3-61.9,58.3-64.7,58.7c-3.4,0.4-6,0.9-9.5-2.8c-3.3-3.6-13.2-19.5-16.3-24c-5.1-7.3-10.2-10.5-16.5-8.2
	c-4.3,1.7-6,5.7-6,10c0,1.3,0.2,2.7,0.4,4c1.7,8,5.8,15.8,6.9,20.4c0.1,0.5,0.2,1.1,0.2,1.7c0,2.4-1.1,3.3-4,3.1
	c-8.8-0.6-25.9-1.8-41.9-0.4c-22,1.9-32.9,9-42.6,17.4c-4.6,4.1-24.7,23.1-24.7,59.5s20.1,55.4,24.8,59.5
	c9.7,8.4,20.6,15.5,42.6,17.4c16,1.4,33.1,0.1,41.9-0.4c2.8-0.2,4,0.7,4,3.1c0,0.6-0.1,1.1-0.2,1.7c-1.1,4.5-5.1,12.3-6.9,20.3
	c-0.3,1.3-0.4,2.6-0.4,4c0,4.2,1.6,8.3,6,10c6.3,2.4,11.4-0.8,16.5-8.2c3.1-4.4,13-20.4,16.3-24c3.4-3.7,6.1-3.2,9.5-2.8
	c2.8,0.4,40.4,8.4,64.7,58.7c1.4,2.9,4.5,8,9.3-0.9c7.6-13.9,6.8-23.1,11.4-30.3c3.9-6.1,12.4-2.5,15.4-6.9
	c3.8-5.5-0.3-21.6,6.6-42.3c5.7-17.4,22-28.1,22-59s-16.3-41.8-22-58.9c-6.9-20.8-2.8-36.9-6.6-42.3c-3.1-4.4-11.5-0.8-15.4-6.9
	c-4.6-7.2-3.8-16.4-11.5-30.3C305.4,108.6,302.3,113.7,300.8,116.6z"/>
</svg>
