<?xml version="1.0" encoding="utf-8"?>
<!-- Generator: Adobe Illustrator 27.5.0, SVG Export Plug-In . SVG Version: 6.00 Build 0)  -->
<svg version="1.1" id="Ebene_1" xmlns="http://www.w3.org/2000/svg" xmlns:xlink="http://www.w3.org/1999/xlink" x="0px" y="0px"
	 viewBox="0 0 448 512" style="enable-background:new 0 0 448 512;" xml:space="preserve">
<path d="M0,80v352c0,26.5,21.5,48,48,48h352c26.5,0,48-21.5,48-48V80c0-26.5-21.5-48-48-48H48C21.5,32,0,53.5,0,80z M158.8,128.9
	c2.8-0.2,5.7-0.2,8.5-0.2c86.7,0,186.6,66,186.6,186.6c0,37.2-10.8,71.7-29.4,100.7c0.6-5.3,0.8-10.4,0.8-15.8
	c0-30.7-10.4-58.9-28-81.4c-0.6,28.8-19.5,53-45.5,61.3c1.5-10.1,1.5-19.2-1.2-29.6c-6.1,30-32.5,52.5-64.4,52.5h-0.8
	c4.9-8.7,7.9-18.9,8.3-29.6c-12.2,18.3-32.7,29.2-54.6,29.2c-12.2,0-23.4-3.2-33.1-8.9c39.8-32.3,65.8-80.8,68.6-135.2
	c-44.5,9.3-80.6-24-80.6-64c0-18.9,7.9-35.9,20.7-47.9c-2.8-14.8-8.3-29-15.8-41.6c15.2,4.9,28,15.2,36.1,28.8
	c-1.4-13.2-5.1-26-10.2-37.8C137.9,104.9,149.5,116.1,158.8,128.9z"/>
</svg>
