<?xml version="1.0" encoding="utf-8"?>
<!-- Generator: Adobe Illustrator 27.5.0, SVG Export Plug-In . SVG Version: 6.00 Build 0)  -->
<svg version="1.1" id="Ebene_1" xmlns="http://www.w3.org/2000/svg" xmlns:xlink="http://www.w3.org/1999/xlink" x="0px" y="0px"
	 viewBox="0 0 448 512" style="enable-background:new 0 0 448 512;" xml:space="preserve">
<path d="M224,389.2c72.7,0,131.8-59.1,131.9-131.8c0-24.9-7-49.2-20.2-70.1l-3.1-5l13.3-48.6L296,146.8l-4.8-2.9
	c-20.2-12-43.4-18.4-67.1-18.4H224c-72.6,0-133.3,59.1-133.3,131.8c0,35.2,15.2,68.3,40.1,93.2C155.8,375.5,188.8,389.2,224,389.2
	L224,389.2z M146.5,200.8c3.3-9.3,19.1-17.7,26.7-18.8c12.6-1.9,22.4-0.9,47.5,9.9c39.7,17.2,65.7,57.2,67.7,59.8
	c2,2.6,16.2,21.5,16.2,41c0,19.5-10.2,29.1-13.9,33.1c-3.6,4-7.9,5-10.6,5c-2.6,0-5.3,0-7.6-0.1c-2.4-0.1-5.7,0.9-8.9-6.8
	c-3.3-7.9-11.2-27.4-12.2-29.4s-1.7-4.3-0.3-6.9c7.6-15.2,15.7-14.6,11.6-21.6c-15.3-26.3-30.6-35.4-53.9-47.1c-4-2-6.3-1.7-8.6,1
	c-2.3,2.6-9.9,11.6-12.5,15.5c-2.6,4-5.3,3.3-8.9,2s-23.1-10.9-27.1-12.9c-4-2-6.6-3-7.6-4.6C143.2,218,143.2,210,146.5,200.8z
	 M48,480l352,0c26.5,0,48-21.5,48-48l0-352c0-26.5-21.5-48-48-48L48,32C21.5,32,0,53.5,0,80l0,352C0,458.5,21.5,480,48,480z
	 M224.1,98.8c26.6,0,52.7,6.7,75.8,19.3L384,96l-22.5,82.2c13.9,24,21.2,51.3,21.2,79.3C382.6,344.9,311.5,416,224.1,416
	c-42.4,0-82.2-16.5-112.2-46.5C82,339.5,64,299.7,64,257.3C64,169.9,136.7,98.8,224.1,98.8L224.1,98.8z"/>
</svg>
