<?xml version="1.0" encoding="utf-8"?>
<!-- Generator: Adobe Illustrator 27.5.0, SVG Export Plug-In . SVG Version: 6.00 Build 0)  -->
<svg version="1.1" id="Ebene_1" xmlns="http://www.w3.org/2000/svg" xmlns:xlink="http://www.w3.org/1999/xlink" x="0px" y="0px"
	 viewBox="0 0 448 512" style="enable-background:new 0 0 448 512;" xml:space="preserve">
<path d="M170.1,293.2l54.1-95.2l54.1,95.2H170.1z M48,32h352c26.5,0,48,21.5,48,48v352c0,26.5-21.5,48-48,48H48
	c-26.5,0-48-21.5-48-48V80C0,53.5,21.5,32,48,32z M224.3,74c0,0-59.6,0-88.2,7.6c-15.8,4.2-28.2,16.5-32.4,32.2
	C96,142.1,96,256,96,256s0,113.9,7.7,142.2c4.2,15.7,16.6,28,32.4,32.2c28.5,7.6,88.2,7.6,88.2,7.6s59.6,0,88.2-7.6
	c15.8-4.2,27.7-16.5,31.9-32.2C352,369.9,352,256,352,256s0-113.9-7.7-142.2c-4.2-15.7-16.1-28-31.9-32.2
	C283.9,74,224.3,74,224.3,74L224.3,74z"/>
</svg>
